<svg xmlns="http://www.w3.org/2000/svg" viewBox="0 0 705 250" width="705" height="250" font-family="ui-monospace, Menlo, Consolas, monospace" role="img">
<title>prgr1no — mi setup de terminal</title>
<rect x="6" y="6" width="693" height="238" rx="14" fill="#21222c"/>
<circle cx="34" cy="34" r="6" fill="#ff5555"/><circle cx="54" cy="34" r="6" fill="#f1fa8c"/><circle cx="74" cy="34" r="6" fill="#50fa7b"/>
<rect x="49" y="58" width="13" height="13" rx="2" fill="#bd93f9"/>
<rect x="64" y="58" width="13" height="13" rx="2" fill="#bd93f9"/>
<rect x="79" y="58" width="13" height="13" rx="2" fill="#bd93f9"/>
<rect x="94" y="58" width="13" height="13" rx="2" fill="#bd93f9"/>
<rect x="49" y="73" width="13" height="13" rx="2" fill="#bd93f9"/>
<rect x="109" y="73" width="13" height="13" rx="2" fill="#bd93f9"/>
<rect x="49" y="88" width="13" height="13" rx="2" fill="#bd93f9"/>
<rect x="109" y="88" width="13" height="13" rx="2" fill="#bd93f9"/>
<rect x="49" y="103" width="13" height="13" rx="2" fill="#bd93f9"/>
<rect x="64" y="103" width="13" height="13" rx="2" fill="#bd93f9"/>
<rect x="79" y="103" width="13" height="13" rx="2" fill="#bd93f9"/>
<rect x="94" y="103" width="13" height="13" rx="2" fill="#bd93f9"/>
<rect x="49" y="118" width="13" height="13" rx="2" fill="#bd93f9"/>
<rect x="49" y="133" width="13" height="13" rx="2" fill="#bd93f9"/>
<rect x="49" y="148" width="13" height="13" rx="2" fill="#bd93f9"/>
<rect x="139" y="58" width="13" height="13" rx="2" fill="#ff79c6"/>
<rect x="154" y="58" width="13" height="13" rx="2" fill="#ff79c6"/>
<rect x="169" y="58" width="13" height="13" rx="2" fill="#ff79c6"/>
<rect x="184" y="58" width="13" height="13" rx="2" fill="#ff79c6"/>
<rect x="139" y="73" width="13" height="13" rx="2" fill="#ff79c6"/>
<rect x="199" y="73" width="13" height="13" rx="2" fill="#ff79c6"/>
<rect x="139" y="88" width="13" height="13" rx="2" fill="#ff79c6"/>
<rect x="199" y="88" width="13" height="13" rx="2" fill="#ff79c6"/>
<rect x="139" y="103" width="13" height="13" rx="2" fill="#ff79c6"/>
<rect x="154" y="103" width="13" height="13" rx="2" fill="#ff79c6"/>
<rect x="169" y="103" width="13" height="13" rx="2" fill="#ff79c6"/>
<rect x="184" y="103" width="13" height="13" rx="2" fill="#ff79c6"/>
<rect x="139" y="118" width="13" height="13" rx="2" fill="#ff79c6"/>
<rect x="169" y="118" width="13" height="13" rx="2" fill="#ff79c6"/>
<rect x="139" y="133" width="13" height="13" rx="2" fill="#ff79c6"/>
<rect x="184" y="133" width="13" height="13" rx="2" fill="#ff79c6"/>
<rect x="139" y="148" width="13" height="13" rx="2" fill="#ff79c6"/>
<rect x="199" y="148" width="13" height="13" rx="2" fill="#ff79c6"/>
<rect x="244" y="58" width="13" height="13" rx="2" fill="#8be9fd"/>
<rect x="259" y="58" width="13" height="13" rx="2" fill="#8be9fd"/>
<rect x="274" y="58" width="13" height="13" rx="2" fill="#8be9fd"/>
<rect x="229" y="73" width="13" height="13" rx="2" fill="#8be9fd"/>
<rect x="289" y="73" width="13" height="13" rx="2" fill="#8be9fd"/>
<rect x="229" y="88" width="13" height="13" rx="2" fill="#8be9fd"/>
<rect x="229" y="103" width="13" height="13" rx="2" fill="#8be9fd"/>
<rect x="259" y="103" width="13" height="13" rx="2" fill="#8be9fd"/>
<rect x="274" y="103" width="13" height="13" rx="2" fill="#8be9fd"/>
<rect x="289" y="103" width="13" height="13" rx="2" fill="#8be9fd"/>
<rect x="229" y="118" width="13" height="13" rx="2" fill="#8be9fd"/>
<rect x="289" y="118" width="13" height="13" rx="2" fill="#8be9fd"/>
<rect x="229" y="133" width="13" height="13" rx="2" fill="#8be9fd"/>
<rect x="289" y="133" width="13" height="13" rx="2" fill="#8be9fd"/>
<rect x="244" y="148" width="13" height="13" rx="2" fill="#8be9fd"/>
<rect x="259" y="148" width="13" height="13" rx="2" fill="#8be9fd"/>
<rect x="274" y="148" width="13" height="13" rx="2" fill="#8be9fd"/>
<rect x="319" y="58" width="13" height="13" rx="2" fill="#50fa7b"/>
<rect x="334" y="58" width="13" height="13" rx="2" fill="#50fa7b"/>
<rect x="349" y="58" width="13" height="13" rx="2" fill="#50fa7b"/>
<rect x="364" y="58" width="13" height="13" rx="2" fill="#50fa7b"/>
<rect x="319" y="73" width="13" height="13" rx="2" fill="#50fa7b"/>
<rect x="379" y="73" width="13" height="13" rx="2" fill="#50fa7b"/>
<rect x="319" y="88" width="13" height="13" rx="2" fill="#50fa7b"/>
<rect x="379" y="88" width="13" height="13" rx="2" fill="#50fa7b"/>
<rect x="319" y="103" width="13" height="13" rx="2" fill="#50fa7b"/>
<rect x="334" y="103" width="13" height="13" rx="2" fill="#50fa7b"/>
<rect x="349" y="103" width="13" height="13" rx="2" fill="#50fa7b"/>
<rect x="364" y="103" width="13" height="13" rx="2" fill="#50fa7b"/>
<rect x="319" y="118" width="13" height="13" rx="2" fill="#50fa7b"/>
<rect x="349" y="118" width="13" height="13" rx="2" fill="#50fa7b"/>
<rect x="319" y="133" width="13" height="13" rx="2" fill="#50fa7b"/>
<rect x="364" y="133" width="13" height="13" rx="2" fill="#50fa7b"/>
<rect x="319" y="148" width="13" height="13" rx="2" fill="#50fa7b"/>
<rect x="379" y="148" width="13" height="13" rx="2" fill="#50fa7b"/>
<rect x="439" y="58" width="13" height="13" rx="2" fill="#ffb86c"/>
<rect x="424" y="73" width="13" height="13" rx="2" fill="#ffb86c"/>
<rect x="439" y="73" width="13" height="13" rx="2" fill="#ffb86c"/>
<rect x="439" y="88" width="13" height="13" rx="2" fill="#ffb86c"/>
<rect x="439" y="103" width="13" height="13" rx="2" fill="#ffb86c"/>
<rect x="439" y="118" width="13" height="13" rx="2" fill="#ffb86c"/>
<rect x="439" y="133" width="13" height="13" rx="2" fill="#ffb86c"/>
<rect x="424" y="148" width="13" height="13" rx="2" fill="#ffb86c"/>
<rect x="439" y="148" width="13" height="13" rx="2" fill="#ffb86c"/>
<rect x="454" y="148" width="13" height="13" rx="2" fill="#ffb86c"/>
<rect x="499" y="58" width="13" height="13" rx="2" fill="#ff5555"/>
<rect x="559" y="58" width="13" height="13" rx="2" fill="#ff5555"/>
<rect x="499" y="73" width="13" height="13" rx="2" fill="#ff5555"/>
<rect x="514" y="73" width="13" height="13" rx="2" fill="#ff5555"/>
<rect x="559" y="73" width="13" height="13" rx="2" fill="#ff5555"/>
<rect x="499" y="88" width="13" height="13" rx="2" fill="#ff5555"/>
<rect x="529" y="88" width="13" height="13" rx="2" fill="#ff5555"/>
<rect x="559" y="88" width="13" height="13" rx="2" fill="#ff5555"/>
<rect x="499" y="103" width="13" height="13" rx="2" fill="#ff5555"/>
<rect x="544" y="103" width="13" height="13" rx="2" fill="#ff5555"/>
<rect x="559" y="103" width="13" height="13" rx="2" fill="#ff5555"/>
<rect x="499" y="118" width="13" height="13" rx="2" fill="#ff5555"/>
<rect x="559" y="118" width="13" height="13" rx="2" fill="#ff5555"/>
<rect x="499" y="133" width="13" height="13" rx="2" fill="#ff5555"/>
<rect x="559" y="133" width="13" height="13" rx="2" fill="#ff5555"/>
<rect x="499" y="148" width="13" height="13" rx="2" fill="#ff5555"/>
<rect x="559" y="148" width="13" height="13" rx="2" fill="#ff5555"/>
<rect x="604" y="58" width="13" height="13" rx="2" fill="#f1fa8c"/>
<rect x="619" y="58" width="13" height="13" rx="2" fill="#f1fa8c"/>
<rect x="634" y="58" width="13" height="13" rx="2" fill="#f1fa8c"/>
<rect x="589" y="73" width="13" height="13" rx="2" fill="#f1fa8c"/>
<rect x="649" y="73" width="13" height="13" rx="2" fill="#f1fa8c"/>
<rect x="589" y="88" width="13" height="13" rx="2" fill="#f1fa8c"/>
<rect x="649" y="88" width="13" height="13" rx="2" fill="#f1fa8c"/>
<rect x="589" y="103" width="13" height="13" rx="2" fill="#f1fa8c"/>
<rect x="649" y="103" width="13" height="13" rx="2" fill="#f1fa8c"/>
<rect x="589" y="118" width="13" height="13" rx="2" fill="#f1fa8c"/>
<rect x="649" y="118" width="13" height="13" rx="2" fill="#f1fa8c"/>
<rect x="589" y="133" width="13" height="13" rx="2" fill="#f1fa8c"/>
<rect x="649" y="133" width="13" height="13" rx="2" fill="#f1fa8c"/>
<rect x="604" y="148" width="13" height="13" rx="2" fill="#f1fa8c"/>
<rect x="619" y="148" width="13" height="13" rx="2" fill="#f1fa8c"/>
<rect x="634" y="148" width="13" height="13" rx="2" fill="#f1fa8c"/>
<rect x="45" y="54" width="13" height="13" rx="2" fill="#f8f8f2"/>
<rect x="60" y="54" width="13" height="13" rx="2" fill="#f8f8f2"/>
<rect x="75" y="54" width="13" height="13" rx="2" fill="#f8f8f2"/>
<rect x="90" y="54" width="13" height="13" rx="2" fill="#f8f8f2"/>
<rect x="45" y="69" width="13" height="13" rx="2" fill="#f8f8f2"/>
<rect x="105" y="69" width="13" height="13" rx="2" fill="#f8f8f2"/>
<rect x="45" y="84" width="13" height="13" rx="2" fill="#f8f8f2"/>
<rect x="105" y="84" width="13" height="13" rx="2" fill="#f8f8f2"/>
<rect x="45" y="99" width="13" height="13" rx="2" fill="#f8f8f2"/>
<rect x="60" y="99" width="13" height="13" rx="2" fill="#f8f8f2"/>
<rect x="75" y="99" width="13" height="13" rx="2" fill="#f8f8f2"/>
<rect x="90" y="99" width="13" height="13" rx="2" fill="#f8f8f2"/>
<rect x="45" y="114" width="13" height="13" rx="2" fill="#f8f8f2"/>
<rect x="45" y="129" width="13" height="13" rx="2" fill="#f8f8f2"/>
<rect x="45" y="144" width="13" height="13" rx="2" fill="#f8f8f2"/>
<rect x="135" y="54" width="13" height="13" rx="2" fill="#f8f8f2"/>
<rect x="150" y="54" width="13" height="13" rx="2" fill="#f8f8f2"/>
<rect x="165" y="54" width="13" height="13" rx="2" fill="#f8f8f2"/>
<rect x="180" y="54" width="13" height="13" rx="2" fill="#f8f8f2"/>
<rect x="135" y="69" width="13" height="13" rx="2" fill="#f8f8f2"/>
<rect x="195" y="69" width="13" height="13" rx="2" fill="#f8f8f2"/>
<rect x="135" y="84" width="13" height="13" rx="2" fill="#f8f8f2"/>
<rect x="195" y="84" width="13" height="13" rx="2" fill="#f8f8f2"/>
<rect x="135" y="99" width="13" height="13" rx="2" fill="#f8f8f2"/>
<rect x="150" y="99" width="13" height="13" rx="2" fill="#f8f8f2"/>
<rect x="165" y="99" width="13" height="13" rx="2" fill="#f8f8f2"/>
<rect x="180" y="99" width="13" height="13" rx="2" fill="#f8f8f2"/>
<rect x="135" y="114" width="13" height="13" rx="2" fill="#f8f8f2"/>
<rect x="165" y="114" width="13" height="13" rx="2" fill="#f8f8f2"/>
<rect x="135" y="129" width="13" height="13" rx="2" fill="#f8f8f2"/>
<rect x="180" y="129" width="13" height="13" rx="2" fill="#f8f8f2"/>
<rect x="135" y="144" width="13" height="13" rx="2" fill="#f8f8f2"/>
<rect x="195" y="144" width="13" height="13" rx="2" fill="#f8f8f2"/>
<rect x="240" y="54" width="13" height="13" rx="2" fill="#f8f8f2"/>
<rect x="255" y="54" width="13" height="13" rx="2" fill="#f8f8f2"/>
<rect x="270" y="54" width="13" height="13" rx="2" fill="#f8f8f2"/>
<rect x="225" y="69" width="13" height="13" rx="2" fill="#f8f8f2"/>
<rect x="285" y="69" width="13" height="13" rx="2" fill="#f8f8f2"/>
<rect x="225" y="84" width="13" height="13" rx="2" fill="#f8f8f2"/>
<rect x="225" y="99" width="13" height="13" rx="2" fill="#f8f8f2"/>
<rect x="255" y="99" width="13" height="13" rx="2" fill="#f8f8f2"/>
<rect x="270" y="99" width="13" height="13" rx="2" fill="#f8f8f2"/>
<rect x="285" y="99" width="13" height="13" rx="2" fill="#f8f8f2"/>
<rect x="225" y="114" width="13" height="13" rx="2" fill="#f8f8f2"/>
<rect x="285" y="114" width="13" height="13" rx="2" fill="#f8f8f2"/>
<rect x="225" y="129" width="13" height="13" rx="2" fill="#f8f8f2"/>
<rect x="285" y="129" width="13" height="13" rx="2" fill="#f8f8f2"/>
<rect x="240" y="144" width="13" height="13" rx="2" fill="#f8f8f2"/>
<rect x="255" y="144" width="13" height="13" rx="2" fill="#f8f8f2"/>
<rect x="270" y="144" width="13" height="13" rx="2" fill="#f8f8f2"/>
<rect x="315" y="54" width="13" height="13" rx="2" fill="#f8f8f2"/>
<rect x="330" y="54" width="13" height="13" rx="2" fill="#f8f8f2"/>
<rect x="345" y="54" width="13" height="13" rx="2" fill="#f8f8f2"/>
<rect x="360" y="54" width="13" height="13" rx="2" fill="#f8f8f2"/>
<rect x="315" y="69" width="13" height="13" rx="2" fill="#f8f8f2"/>
<rect x="375" y="69" width="13" height="13" rx="2" fill="#f8f8f2"/>
<rect x="315" y="84" width="13" height="13" rx="2" fill="#f8f8f2"/>
<rect x="375" y="84" width="13" height="13" rx="2" fill="#f8f8f2"/>
<rect x="315" y="99" width="13" height="13" rx="2" fill="#f8f8f2"/>
<rect x="330" y="99" width="13" height="13" rx="2" fill="#f8f8f2"/>
<rect x="345" y="99" width="13" height="13" rx="2" fill="#f8f8f2"/>
<rect x="360" y="99" width="13" height="13" rx="2" fill="#f8f8f2"/>
<rect x="315" y="114" width="13" height="13" rx="2" fill="#f8f8f2"/>
<rect x="345" y="114" width="13" height="13" rx="2" fill="#f8f8f2"/>
<rect x="315" y="129" width="13" height="13" rx="2" fill="#f8f8f2"/>
<rect x="360" y="129" width="13" height="13" rx="2" fill="#f8f8f2"/>
<rect x="315" y="144" width="13" height="13" rx="2" fill="#f8f8f2"/>
<rect x="375" y="144" width="13" height="13" rx="2" fill="#f8f8f2"/>
<rect x="435" y="54" width="13" height="13" rx="2" fill="#f8f8f2"/>
<rect x="420" y="69" width="13" height="13" rx="2" fill="#f8f8f2"/>
<rect x="435" y="69" width="13" height="13" rx="2" fill="#f8f8f2"/>
<rect x="435" y="84" width="13" height="13" rx="2" fill="#f8f8f2"/>
<rect x="435" y="99" width="13" height="13" rx="2" fill="#f8f8f2"/>
<rect x="435" y="114" width="13" height="13" rx="2" fill="#f8f8f2"/>
<rect x="435" y="129" width="13" height="13" rx="2" fill="#f8f8f2"/>
<rect x="420" y="144" width="13" height="13" rx="2" fill="#f8f8f2"/>
<rect x="435" y="144" width="13" height="13" rx="2" fill="#f8f8f2"/>
<rect x="450" y="144" width="13" height="13" rx="2" fill="#f8f8f2"/>
<rect x="495" y="54" width="13" height="13" rx="2" fill="#f8f8f2"/>
<rect x="555" y="54" width="13" height="13" rx="2" fill="#f8f8f2"/>
<rect x="495" y="69" width="13" height="13" rx="2" fill="#f8f8f2"/>
<rect x="510" y="69" width="13" height="13" rx="2" fill="#f8f8f2"/>
<rect x="555" y="69" width="13" height="13" rx="2" fill="#f8f8f2"/>
<rect x="495" y="84" width="13" height="13" rx="2" fill="#f8f8f2"/>
<rect x="525" y="84" width="13" height="13" rx="2" fill="#f8f8f2"/>
<rect x="555" y="84" width="13" height="13" rx="2" fill="#f8f8f2"/>
<rect x="495" y="99" width="13" height="13" rx="2" fill="#f8f8f2"/>
<rect x="540" y="99" width="13" height="13" rx="2" fill="#f8f8f2"/>
<rect x="555" y="99" width="13" height="13" rx="2" fill="#f8f8f2"/>
<rect x="495" y="114" width="13" height="13" rx="2" fill="#f8f8f2"/>
<rect x="555" y="114" width="13" height="13" rx="2" fill="#f8f8f2"/>
<rect x="495" y="129" width="13" height="13" rx="2" fill="#f8f8f2"/>
<rect x="555" y="129" width="13" height="13" rx="2" fill="#f8f8f2"/>
<rect x="495" y="144" width="13" height="13" rx="2" fill="#f8f8f2"/>
<rect x="555" y="144" width="13" height="13" rx="2" fill="#f8f8f2"/>
<rect x="600" y="54" width="13" height="13" rx="2" fill="#f8f8f2"/>
<rect x="615" y="54" width="13" height="13" rx="2" fill="#f8f8f2"/>
<rect x="630" y="54" width="13" height="13" rx="2" fill="#f8f8f2"/>
<rect x="585" y="69" width="13" height="13" rx="2" fill="#f8f8f2"/>
<rect x="645" y="69" width="13" height="13" rx="2" fill="#f8f8f2"/>
<rect x="585" y="84" width="13" height="13" rx="2" fill="#f8f8f2"/>
<rect x="645" y="84" width="13" height="13" rx="2" fill="#f8f8f2"/>
<rect x="585" y="99" width="13" height="13" rx="2" fill="#f8f8f2"/>
<rect x="645" y="99" width="13" height="13" rx="2" fill="#f8f8f2"/>
<rect x="585" y="114" width="13" height="13" rx="2" fill="#f8f8f2"/>
<rect x="645" y="114" width="13" height="13" rx="2" fill="#f8f8f2"/>
<rect x="585" y="129" width="13" height="13" rx="2" fill="#f8f8f2"/>
<rect x="645" y="129" width="13" height="13" rx="2" fill="#f8f8f2"/>
<rect x="600" y="144" width="13" height="13" rx="2" fill="#f8f8f2"/>
<rect x="615" y="144" width="13" height="13" rx="2" fill="#f8f8f2"/>
<rect x="630" y="144" width="13" height="13" rx="2" fill="#f8f8f2"/>
<text x="352" y="206" text-anchor="middle" fill="#6272a4" font-size="17">mi setup de terminal · kitty · zsh · starship · yazi</text>
<text x="352" y="230" text-anchor="middle" fill="#bd93f9" font-size="14">❯ todo en Dracula</text>
</svg>
